<svg width="20" height="20" viewBox="0 0 20 20" fill="none" xmlns="http://www.w3.org/2000/svg">
<path d="M18.3337 8.33317H1.66699M1.66699 6.83317L1.66699 13.1665C1.66699 14.0999 1.66699 14.5666 1.84865 14.9232C2.00844 15.2368 2.2634 15.4917 2.57701 15.6515C2.93353 15.8332 3.40024 15.8332 4.33366 15.8332L15.667 15.8332C16.6004 15.8332 17.0671 15.8332 17.4236 15.6515C17.7372 15.4917 17.9922 15.2368 18.152 14.9232C18.3337 14.5666 18.3337 14.0999 18.3337 13.1665V6.83317C18.3337 5.89975 18.3337 5.43304 18.152 5.07652C17.9922 4.76292 17.7372 4.50795 17.4236 4.34816C17.0671 4.16651 16.6004 4.16651 15.667 4.1665L4.33366 4.1665C3.40024 4.1665 2.93353 4.1665 2.57701 4.34816C2.2634 4.50795 2.00844 4.76292 1.84865 5.07652C1.66699 5.43304 1.66699 5.89975 1.66699 6.83317Z" stroke="url(#paint0_linear_1479_3670)" stroke-width="1.66667" stroke-linecap="round" stroke-linejoin="round"/>
<defs>
<linearGradient id="paint0_linear_1479_3670" x1="10.0003" y1="15.8332" x2="10.0003" y2="4.1665" gradientUnits="userSpaceOnUse">
<stop stop-color="#FDD948"/>
<stop offset="1" stop-color="#FB7198"/>
</linearGradient>
</defs>
</svg>
