<svg width="15" height="16" viewBox="0 0 15 16" fill="none" xmlns="http://www.w3.org/2000/svg">
<path d="M11.5003 6.66671L8.83368 4.00004M1.16699 14.3334L3.42324 14.0827C3.6989 14.0521 3.83673 14.0367 3.96556 13.995C4.07985 13.958 4.18862 13.9058 4.28892 13.8396C4.40196 13.7651 4.50002 13.667 4.69614 13.4709L13.5003 4.66671C14.2367 3.93033 14.2367 2.73642 13.5003 2.00004C12.764 1.26366 11.5701 1.26366 10.8337 2.00004L2.02948 10.8042C1.83336 11.0003 1.7353 11.0984 1.66075 11.2114C1.59461 11.3117 1.54234 11.4205 1.50533 11.5348C1.46363 11.6636 1.44831 11.8015 1.41769 12.0771L1.16699 14.3334Z" stroke="black" stroke-width="1.5" stroke-linecap="round" stroke-linejoin="round"/>
</svg>
