<svg width="20" height="22" viewBox="0 0 20 22" fill="none" xmlns="http://www.w3.org/2000/svg">
<path d="M10.0005 17.9998V10.9998M10.292 18.0845L17.2704 20.4207C17.8173 20.6038 18.0908 20.6953 18.2594 20.6296C18.4059 20.5726 18.517 20.45 18.5594 20.2987C18.6082 20.1244 18.4903 19.8613 18.2545 19.3349L10.766 2.6222C10.5354 2.1075 10.4201 1.85015 10.2594 1.77041C10.1199 1.70113 9.95601 1.70087 9.81623 1.7697C9.65535 1.84892 9.53921 2.1059 9.30694 2.61986L1.75244 19.3359C1.51474 19.8619 1.39589 20.1248 1.44422 20.2993C1.48619 20.4508 1.59697 20.5737 1.74329 20.6312C1.91178 20.6974 2.18567 20.6064 2.73346 20.4246L9.78598 18.0838C9.87989 18.0527 9.92684 18.0371 9.97486 18.0309C10.0175 18.0255 10.0606 18.0255 10.1032 18.0311C10.1512 18.0374 10.1981 18.0531 10.292 18.0845Z" stroke="black" stroke-width="2" stroke-linecap="round" stroke-linejoin="round"/>
</svg>
