<svg width="20" height="20" viewBox="0 0 20 20" fill="none" xmlns="http://www.w3.org/2000/svg">
<path d="M7.82888 16.1424L8.31591 17.2378C8.4607 17.5639 8.69698 17.8409 8.9961 18.0353C9.29522 18.2298 9.64434 18.3332 10.0011 18.3332C10.3579 18.3332 10.707 18.2298 11.0061 18.0353C11.3052 17.8409 11.5415 17.5639 11.6863 17.2378L12.1733 16.1424C12.3467 15.7538 12.6383 15.4297 13.0067 15.2165C13.3773 15.0027 13.8061 14.9116 14.2317 14.9563L15.4233 15.0832C15.778 15.1207 16.136 15.0545 16.4539 14.8926C16.7717 14.7307 17.0358 14.4801 17.2141 14.1711C17.3925 13.8623 17.4776 13.5084 17.4588 13.1522C17.4401 12.7961 17.3184 12.453 17.1085 12.1647L16.4029 11.1952C16.1517 10.8474 16.0175 10.4289 16.0196 9.99984C16.0195 9.57199 16.155 9.15513 16.4067 8.8091L17.1122 7.83965C17.3221 7.5513 17.4438 7.20823 17.4625 6.85207C17.4813 6.4959 17.3962 6.14195 17.2178 5.83317C17.0395 5.5242 16.7754 5.27358 16.4576 5.11169C16.1397 4.94981 15.7817 4.88361 15.427 4.92113L14.2354 5.04799C13.8098 5.09268 13.381 5.00161 13.0104 4.7878C12.6413 4.57338 12.3496 4.24764 12.177 3.85725L11.6863 2.76187C11.5415 2.43581 11.3052 2.15877 11.0061 1.96434C10.707 1.76991 10.3579 1.66645 10.0011 1.6665C9.64434 1.66645 9.29522 1.76991 8.9961 1.96434C8.69698 2.15877 8.4607 2.43581 8.31591 2.76187L7.82888 3.85725C7.65632 4.24764 7.3646 4.57338 6.99554 4.7878C6.62489 5.00161 6.1961 5.09268 5.77054 5.04799L4.57517 4.92113C4.22045 4.88361 3.86246 4.94981 3.5446 5.11169C3.22675 5.27358 2.96269 5.5242 2.78443 5.83317C2.60595 6.14195 2.52092 6.4959 2.53965 6.85207C2.55839 7.20823 2.68009 7.5513 2.88999 7.83965L3.59554 8.8091C3.84716 9.15513 3.98266 9.57199 3.98258 9.99984C3.98266 10.4277 3.84716 10.8445 3.59554 11.1906L2.88999 12.16C2.68009 12.4484 2.55839 12.7914 2.53965 13.1476C2.52092 13.5038 2.60595 13.8577 2.78443 14.1665C2.96286 14.4753 3.22696 14.7258 3.54476 14.8877C3.86257 15.0495 4.22047 15.1158 4.57517 15.0785L5.76684 14.9517C6.1924 14.907 6.62119 14.9981 6.99184 15.2119C7.36228 15.4257 7.65535 15.7515 7.82888 16.1424Z" stroke="url(#paint0_linear_1479_3666)" stroke-width="1.66667" stroke-linecap="round" stroke-linejoin="round"/>
<path d="M9.99961 12.4998C11.3803 12.4998 12.4996 11.3805 12.4996 9.99984C12.4996 8.61913 11.3803 7.49984 9.99961 7.49984C8.6189 7.49984 7.49961 8.61913 7.49961 9.99984C7.49961 11.3805 8.6189 12.4998 9.99961 12.4998Z" stroke="url(#paint1_linear_1479_3666)" stroke-width="1.66667" stroke-linecap="round" stroke-linejoin="round"/>
<defs>
<linearGradient id="paint0_linear_1479_3666" x1="10.0011" y1="18.3332" x2="10.0011" y2="1.6665" gradientUnits="userSpaceOnUse">
<stop stop-color="#FDD948"/>
<stop offset="1" stop-color="#FB7198"/>
</linearGradient>
<linearGradient id="paint1_linear_1479_3666" x1="10.0011" y1="18.3332" x2="10.0011" y2="1.6665" gradientUnits="userSpaceOnUse">
<stop stop-color="#FDD948"/>
<stop offset="1" stop-color="#FB7198"/>
</linearGradient>
</defs>
</svg>
